<svg width="1440" height="1024" viewBox="0 0 1440 1024" fill="none" xmlns="http://www.w3.org/2000/svg">
<g clip-path="url(#clip0_363_7)">
<g filter="url(#filter0_f_363_7)">
<path d="M102.978 837.5C-163.022 708 258.979 334.5 258.979 334.5C258.979 334.5 806.661 734.541 1225.98 825C816.911 890.602 444.978 976.5 102.978 837.5Z" fill="#12ABCD" fill-opacity="0.2"/>
<path d="M102.978 837.5C-163.022 708 258.979 334.5 258.979 334.5C258.979 334.5 806.661 734.541 1225.98 825C816.911 890.602 444.978 976.5 102.978 837.5Z" stroke="black"/>
</g>
<g filter="url(#filter1_f_363_7)">
<path d="M1320.4 362.671C1543.82 556.605 1039.53 808.156 1039.53 808.156C1039.53 808.156 614.046 279.996 232.429 84.0916C644.536 126.6 1026.03 139.892 1320.4 362.671Z" fill="#12ABCD" fill-opacity="0.2"/>
<path d="M1320.4 362.671C1543.82 556.605 1039.53 808.156 1039.53 808.156C1039.53 808.156 614.046 279.996 232.429 84.0916C644.536 126.6 1026.03 139.892 1320.4 362.671Z" stroke="black"/>
</g>
</g>
<defs>
<filter id="filter0_f_363_7" x="-385.5" y="-66.1412" width="2011.58" height="1378.7" filterUnits="userSpaceOnUse" color-interpolation-filters="sRGB">
<feFlood flood-opacity="0" result="BackgroundImageFix"/>
<feBlend mode="normal" in="SourceGraphic" in2="BackgroundImageFix" result="shape"/>
<feGaussianBlur stdDeviation="200" result="effect1_foregroundBlur_363_7"/>
</filter>
<filter id="filter1_f_363_7" x="-167.799" y="-316.406" width="1945.8" height="1525.19" filterUnits="userSpaceOnUse" color-interpolation-filters="sRGB">
<feFlood flood-opacity="0" result="BackgroundImageFix"/>
<feBlend mode="normal" in="SourceGraphic" in2="BackgroundImageFix" result="shape"/>
<feGaussianBlur stdDeviation="200" result="effect1_foregroundBlur_363_7"/>
</filter>
<clipPath id="clip0_363_7">
<rect width="1440" height="1024" fill="white"/>
</clipPath>
</defs>
</svg>
