<svg width="105" height="105" viewBox="0 0 105 105" fill="none" xmlns="http://www.w3.org/2000/svg">
<circle cx="52.5" cy="52.5" r="49.5" stroke="url(#paint0_linear_364_4)" stroke-width="6"/>
<path d="M24.321 59V48.0909H28.0071C28.8629 48.0909 29.5625 48.2454 30.1058 48.5543C30.6527 48.8597 31.0575 49.2734 31.3203 49.7955C31.5831 50.3175 31.7145 50.8999 31.7145 51.5426C31.7145 52.1854 31.5831 52.7695 31.3203 53.2951C31.0611 53.8207 30.6598 54.2397 30.1165 54.5522C29.5732 54.8612 28.8771 55.0156 28.0284 55.0156H25.3864V53.8438H27.9858C28.5717 53.8438 29.0423 53.7425 29.3974 53.5401C29.7525 53.3377 30.0099 53.0643 30.1697 52.7198C30.3331 52.3718 30.4148 51.9794 30.4148 51.5426C30.4148 51.1058 30.3331 50.7152 30.1697 50.3707C30.0099 50.0263 29.7507 49.7564 29.392 49.5611C29.0334 49.3622 28.5575 49.2628 27.9645 49.2628H25.642V59H24.321ZM33.6721 59V50.8182H34.8865V52.054H34.9718C35.1209 51.6491 35.3908 51.3207 35.7814 51.0685C36.1721 50.8164 36.6124 50.6903 37.1025 50.6903C37.1948 50.6903 37.3102 50.6921 37.4487 50.6957C37.5872 50.6992 37.6919 50.7045 37.763 50.7116V51.9901C37.7203 51.9794 37.6227 51.9634 37.47 51.9421C37.3208 51.9173 37.1628 51.9048 36.9959 51.9048C36.5982 51.9048 36.2431 51.9883 35.9306 52.1552C35.6216 52.3185 35.3766 52.5458 35.1955 52.837C35.0179 53.1246 34.9292 53.4531 34.9292 53.8224V59H33.6721ZM42.3279 59.1705C41.5893 59.1705 40.9412 58.9947 40.3837 58.6431C39.8297 58.2915 39.3965 57.7997 39.084 57.1676C38.775 56.5355 38.6206 55.7969 38.6206 54.9517C38.6206 54.0994 38.775 53.3555 39.084 52.7198C39.3965 52.0842 39.8297 51.5906 40.3837 51.239C40.9412 50.8874 41.5893 50.7116 42.3279 50.7116C43.0666 50.7116 43.7129 50.8874 44.2669 51.239C44.8244 51.5906 45.2576 52.0842 45.5666 52.7198C45.8791 53.3555 46.0353 54.0994 46.0353 54.9517C46.0353 55.7969 45.8791 56.5355 45.5666 57.1676C45.2576 57.7997 44.8244 58.2915 44.2669 58.6431C43.7129 58.9947 43.0666 59.1705 42.3279 59.1705ZM42.3279 58.0412C42.889 58.0412 43.3507 57.8974 43.7129 57.6097C44.0751 57.3221 44.3432 56.9439 44.5172 56.4751C44.6912 56.0064 44.7782 55.4986 44.7782 54.9517C44.7782 54.4048 44.6912 53.8952 44.5172 53.4229C44.3432 52.9506 44.0751 52.5689 43.7129 52.2777C43.3507 51.9865 42.889 51.8409 42.3279 51.8409C41.7669 51.8409 41.3052 51.9865 40.943 52.2777C40.5808 52.5689 40.3127 52.9506 40.1387 53.4229C39.9647 53.8952 39.8777 54.4048 39.8777 54.9517C39.8777 55.4986 39.9647 56.0064 40.1387 56.4751C40.3127 56.9439 40.5808 57.3221 40.943 57.6097C41.3052 57.8974 41.7669 58.0412 42.3279 58.0412ZM47.9543 50.8182H49.2114V59.5966C49.2114 60.1009 49.1244 60.5376 48.9504 60.907C48.7799 61.2763 48.5207 61.5621 48.1727 61.7646C47.8282 61.967 47.3932 62.0682 46.8676 62.0682C46.825 62.0682 46.7824 62.0682 46.7398 62.0682C46.6972 62.0682 46.6546 62.0682 46.6119 62.0682V60.8963C46.6546 60.8963 46.6936 60.8963 46.7291 60.8963C46.7646 60.8963 46.8037 60.8963 46.8463 60.8963C47.2298 60.8963 47.5104 60.7827 47.6879 60.5554C47.8655 60.3317 47.9543 60.0121 47.9543 59.5966V50.8182ZM48.5722 49.4545C48.3271 49.4545 48.1159 49.3711 47.9383 49.2042C47.7643 49.0373 47.6773 48.8366 47.6773 48.6023C47.6773 48.3679 47.7643 48.1673 47.9383 48.0004C48.1159 47.8335 48.3271 47.75 48.5722 47.75C48.8172 47.75 49.0267 47.8335 49.2007 48.0004C49.3783 48.1673 49.4671 48.3679 49.4671 48.6023C49.4671 48.8366 49.3783 49.0373 49.2007 49.2042C49.0267 49.3711 48.8172 49.4545 48.5722 49.4545ZM54.9442 59.1705C54.1559 59.1705 53.4759 58.9964 52.9041 58.6484C52.3359 58.2969 51.8974 57.8068 51.5884 57.1783C51.283 56.5462 51.1303 55.8111 51.1303 54.973C51.1303 54.1349 51.283 53.3963 51.5884 52.7571C51.8974 52.1143 52.3271 51.6136 52.8775 51.255C53.4315 50.8928 54.0778 50.7116 54.8164 50.7116C55.2425 50.7116 55.6634 50.7827 56.0788 50.9247C56.4943 51.0668 56.8725 51.2976 57.2134 51.6172C57.5543 51.9332 57.826 52.3523 58.0284 52.8743C58.2308 53.3963 58.332 54.0391 58.332 54.8026V55.3352H52.0252V54.2486H57.0536C57.0536 53.7869 56.9613 53.375 56.7766 53.0128C56.5955 52.6506 56.3363 52.3647 55.9989 52.1552C55.6651 51.9457 55.271 51.8409 54.8164 51.8409C54.3157 51.8409 53.8825 51.9652 53.5167 52.2138C53.1545 52.4588 52.8757 52.7784 52.6804 53.1726C52.4851 53.5668 52.3874 53.9893 52.3874 54.4403V55.1648C52.3874 55.7827 52.494 56.3065 52.707 56.7362C52.9237 57.1623 53.2237 57.4872 53.6072 57.7109C53.9908 57.9311 54.4364 58.0412 54.9442 58.0412C55.2745 58.0412 55.5728 57.995 55.8391 57.9027C56.109 57.8068 56.3416 57.6648 56.5369 57.4766C56.7322 57.2848 56.8832 57.0469 56.9897 56.7628L58.2042 57.1037C58.0763 57.5156 57.8615 57.8778 57.5597 58.1903C57.2578 58.4993 56.8849 58.7408 56.4411 58.9148C55.9972 59.0852 55.4982 59.1705 54.9442 59.1705ZM63.8026 50.8182V51.8835H59.5625V50.8182H63.8026ZM60.7983 48.858H62.0554V56.6562C62.0554 57.0114 62.1069 57.2777 62.2099 57.4553C62.3164 57.6293 62.4513 57.7464 62.6147 57.8068C62.7816 57.8636 62.9574 57.892 63.142 57.892C63.2805 57.892 63.3942 57.8849 63.483 57.8707C63.5717 57.853 63.6428 57.8388 63.696 57.8281L63.9517 58.9574C63.8665 58.9893 63.7475 59.0213 63.5948 59.0533C63.4421 59.0888 63.2486 59.1065 63.0142 59.1065C62.6591 59.1065 62.3111 59.0302 61.9702 58.8775C61.6328 58.7248 61.3523 58.4922 61.1286 58.1797C60.9084 57.8672 60.7983 57.473 60.7983 56.9972V48.858ZM68.9295 59.1705C68.1909 59.1705 67.5428 58.9947 66.9853 58.6431C66.4313 58.2915 65.998 57.7997 65.6855 57.1676C65.3766 56.5355 65.2221 55.7969 65.2221 54.9517C65.2221 54.0994 65.3766 53.3555 65.6855 52.7198C65.998 52.0842 66.4313 51.5906 66.9853 51.239C67.5428 50.8874 68.1909 50.7116 68.9295 50.7116C69.6681 50.7116 70.3145 50.8874 70.8684 51.239C71.426 51.5906 71.8592 52.0842 72.1681 52.7198C72.4806 53.3555 72.6369 54.0994 72.6369 54.9517C72.6369 55.7969 72.4806 56.5355 72.1681 57.1676C71.8592 57.7997 71.426 58.2915 70.8684 58.6431C70.3145 58.9947 69.6681 59.1705 68.9295 59.1705ZM68.9295 58.0412C69.4906 58.0412 69.9522 57.8974 70.3145 57.6097C70.6767 57.3221 70.9448 56.9439 71.1188 56.4751C71.2928 56.0064 71.3798 55.4986 71.3798 54.9517C71.3798 54.4048 71.2928 53.8952 71.1188 53.4229C70.9448 52.9506 70.6767 52.5689 70.3145 52.2777C69.9522 51.9865 69.4906 51.8409 68.9295 51.8409C68.3684 51.8409 67.9068 51.9865 67.5446 52.2777C67.1824 52.5689 66.9142 52.9506 66.7402 53.4229C66.5662 53.8952 66.4792 54.4048 66.4792 54.9517C66.4792 55.4986 66.5662 56.0064 66.7402 56.4751C66.9142 56.9439 67.1824 57.3221 67.5446 57.6097C67.9068 57.8974 68.3684 58.0412 68.9295 58.0412ZM80.3513 52.6506L79.222 52.9702C79.151 52.782 79.0463 52.5991 78.9078 52.4215C78.7728 52.2404 78.5882 52.0913 78.3538 51.9741C78.1194 51.8569 77.8193 51.7983 77.4536 51.7983C76.9529 51.7983 76.5356 51.9137 76.2018 52.1445C75.8715 52.3718 75.7064 52.6612 75.7064 53.0128C75.7064 53.3253 75.82 53.5721 76.0473 53.7532C76.2746 53.9343 76.6297 54.0852 77.1127 54.206L78.3271 54.5043C79.0587 54.6818 79.6038 54.9535 79.9624 55.3192C80.3211 55.6815 80.5004 56.1484 80.5004 56.7202C80.5004 57.1889 80.3655 57.608 80.0956 57.9773C79.8293 58.3466 79.4564 58.6378 78.977 58.8509C78.4976 59.0639 77.9401 59.1705 77.3044 59.1705C76.4699 59.1705 75.7792 58.9893 75.2323 58.6271C74.6855 58.2649 74.3392 57.7358 74.1936 57.0398L75.3868 56.7415C75.5004 57.1818 75.7153 57.5121 76.0313 57.7322C76.3509 57.9524 76.7682 58.0625 77.2831 58.0625C77.8691 58.0625 78.3343 57.9382 78.6787 57.6896C79.0267 57.4375 79.2007 57.1357 79.2007 56.7841C79.2007 56.5 79.1013 56.2621 78.9024 56.0703C78.7036 55.875 78.3982 55.7294 77.9862 55.6335L76.6226 55.3139C75.8733 55.1364 75.3229 54.8612 74.9713 54.4883C74.6233 54.1119 74.4493 53.6413 74.4493 53.0767C74.4493 52.6151 74.5789 52.2067 74.8382 51.8516C75.1009 51.4964 75.4578 51.2177 75.9088 51.0153C76.3634 50.8129 76.8783 50.7116 77.4536 50.7116C78.2632 50.7116 78.8989 50.8892 79.3605 51.2443C79.8257 51.5994 80.156 52.0682 80.3513 52.6506Z" fill="#12ABCD"/>
<defs>
<linearGradient id="paint0_linear_364_4" x1="-1.75" y1="52.5" x2="99" y2="52.5" gradientUnits="userSpaceOnUse">
<stop stop-color="#247D7D"/>
<stop offset="1" stop-color="#12ABCD"/>
</linearGradient>
</defs>
</svg>
