<svg width="562" height="384" viewBox="0 0 562 384" fill="none" xmlns="http://www.w3.org/2000/svg">
<g id="logo">
<path id="logo-p" d="M296 371.736V117.236C296 117.236 439.426 116.706 439 117.236C438.574 117.765 457.109 115.893 469.5 121.236C480.737 124.221 486.004 127.634 494.5 135.236C502.036 141.598 505.044 146.363 508.5 156.736C515.207 178.154 513.287 189.784 505.5 210.236C499.84 220.538 494.809 225.285 484 232.736C467.112 240.818 457.199 243.277 439 245.236H383L426.5 201.736C442.839 202.35 449.953 200.831 459.5 195.236C464.424 191.36 466.528 188.608 467.5 181.236C468.456 174.881 467.289 171.593 462 166.236C455.184 161.728 450.551 159.961 439 159.236H339V329.236L296 371.736Z" fill="white" stroke="white"/>
<g id="logo-w">
<path class="logo-w" d="M57 304.5L159 202.5L229.5 273V88L261.5 56V315.5H227L159 247.5L91 315.5H57V304.5Z" fill="white"/>
<path class="logo-w" d="M57 56V258.5L88.5 227V88L57 56Z" fill="white"/>
<path class="logo-w" d="M57 56L57.3563 55.6492L56.5 54.7793V56H57ZM57 258.5H56.5V259.707L57.3536 258.854L57 258.5ZM88.5 227L88.8536 227.354L89 227.207V227H88.5ZM88.5 88H89V87.7952L88.8563 87.6492L88.5 88ZM57 304.5L56.6464 304.146L56.5 304.293V304.5H57ZM159 202.5L159.354 202.146L159 201.793L158.646 202.146L159 202.5ZM229.5 273L229.146 273.354L230 274.207V273H229.5ZM229.5 88L229.146 87.6464L229 87.7929V88H229.5ZM261.5 56H262V54.7929L261.146 55.6464L261.5 56ZM261.5 315.5V316H262V315.5H261.5ZM227 315.5L226.646 315.854L226.793 316H227V315.5ZM159 247.5L159.354 247.146L159 246.793L158.646 247.146L159 247.5ZM91 315.5V316H91.2071L91.3536 315.854L91 315.5ZM57 315.5H56.5V316H57V315.5ZM56.5 56V258.5H57.5V56H56.5ZM57.3536 258.854L88.8536 227.354L88.1464 226.646L56.6464 258.146L57.3536 258.854ZM89 227V88H88V227H89ZM88.8563 87.6492L57.3563 55.6492L56.6437 56.3508L88.1437 88.3508L88.8563 87.6492ZM57.3536 304.854L159.354 202.854L158.646 202.146L56.6464 304.146L57.3536 304.854ZM158.646 202.854L229.146 273.354L229.854 272.646L159.354 202.146L158.646 202.854ZM230 273V88H229V273H230ZM229.854 88.3536L261.854 56.3536L261.146 55.6464L229.146 87.6464L229.854 88.3536ZM261 56V315.5H262V56H261ZM261.5 315H227V316H261.5V315ZM227.354 315.146L159.354 247.146L158.646 247.854L226.646 315.854L227.354 315.146ZM158.646 247.146L90.6464 315.146L91.3536 315.854L159.354 247.854L158.646 247.146ZM91 315H57V316H91V315ZM57.5 315.5V304.5H56.5V315.5H57.5Z" fill="white"/>
</g>
</g>
</svg>
